<?xml version="1.0" standalone="no"?>
<!DOCTYPE svg PUBLIC "-//W3C//DTD SVG 20010904//EN"
 "http://www.w3.org/TR/2001/REC-SVG-20010904/DTD/svg10.dtd">
<svg version="1.0" xmlns="http://www.w3.org/2000/svg"
 width="316.000000pt" height="500.000000pt" viewBox="0 0 316.000000 500.000000"
 preserveAspectRatio="xMidYMid meet">

<g transform="translate(0.000000,500.000000) scale(0.100000,-0.100000)"
fill="#000000" stroke="none">
<path d="M625 3651 c-88 -27 -147 -57 -270 -135 -76 -48 -93 -63 -176 -161
-37 -44 -93 -107 -123 -140 -31 -33 -56 -66 -56 -75 0 -9 6 -5 17 10 9 14 48
59 87 101 39 42 96 104 126 139 91 105 278 216 431 256 117 30 164 29 311 -5
87 -21 255 -94 313 -136 17 -12 62 -39 100 -60 52 -29 99 -68 182 -154 62 -64
132 -142 155 -175 24 -32 60 -82 81 -110 100 -135 157 -342 157 -571 0 -58 -2
-65 -20 -65 -11 0 -28 4 -38 10 -9 5 -44 14 -77 19 -33 5 -96 19 -140 31 -159
44 -223 53 -289 40 -34 -7 -81 -16 -106 -20 -58 -11 -493 -11 -590 0 -86 9
-336 45 -425 61 -60 10 -149 -2 -242 -32 -37 -12 -45 -30 -10 -22 l22 5 -22
-20 c-13 -11 -23 -26 -23 -32 0 -7 16 2 35 19 34 29 41 31 128 33 322 8 493
-17 610 -89 31 -19 37 -29 37 -57 0 -53 -24 -117 -67 -181 -22 -33 -48 -74
-56 -91 -19 -38 -22 -39 -140 -60 -226 -41 -435 -15 -520 64 -15 14 -27 20
-27 13 0 -33 123 -101 185 -101 13 0 27 -5 31 -11 8 -14 -151 -4 -192 11 -15
6 -24 6 -24 0 0 -10 24 -15 130 -29 63 -8 320 1 390 14 19 3 62 11 95 17 67
12 142 46 166 74 9 11 21 34 29 52 20 50 29 38 14 -20 -7 -29 -20 -91 -29
-138 -9 -47 -27 -123 -41 -170 -13 -46 -24 -93 -24 -105 0 -11 16 -37 36 -59
30 -33 39 -37 65 -32 18 3 48 -2 80 -14 67 -27 81 -25 153 12 136 72 158 105
128 195 -12 32 -23 93 -26 135 l-6 77 43 -15 c70 -26 588 -20 622 7 6 4 24 44
40 88 18 52 36 83 47 87 27 8 38 -3 33 -34 -3 -15 -10 -128 -16 -252 -14 -292
-23 -346 -43 -265 -2 11 -4 -8 -3 -43 2 -54 0 -60 -11 -45 -12 16 -13 11 -7
-29 7 -48 -1 -92 -15 -83 -9 5 -30 -47 -30 -75 0 -10 -7 -20 -14 -23 -11 -4
-14 -17 -10 -44 l4 -38 -11 35 c-14 45 -29 61 -29 32 0 -13 -7 -37 -16 -53 -8
-17 -13 -33 -11 -36 3 -3 12 8 20 23 17 33 29 19 29 -33 0 -26 -6 -41 -23 -53
-15 -12 -20 -24 -16 -39 4 -18 3 -20 -8 -11 -12 10 -13 5 -8 -24 4 -25 0 -44
-11 -61 l-17 -26 -21 28 c-12 15 -23 30 -25 32 -2 3 -9 -1 -15 -7 -8 -8 -8
-25 1 -65 7 -35 8 -62 2 -78 l-9 -24 -11 28 c-6 16 -11 36 -11 45 0 9 -4 23
-9 30 -12 20 -21 -9 -21 -73 0 -29 -3 -61 -6 -69 -6 -15 -8 -15 -20 1 -12 16
-13 14 -8 -17 3 -19 7 -45 10 -57 2 -12 -1 -25 -7 -28 -5 -4 -15 -19 -21 -33
l-11 -27 -8 30 c-5 17 -7 55 -4 85 4 52 4 53 -5 16 -6 -22 -15 -45 -21 -52 -8
-10 -7 -18 6 -30 11 -11 15 -29 13 -57 -3 -42 -23 -61 -31 -30 -3 10 -5 3 -6
-15 -1 -34 -43 -107 -54 -95 -4 3 -7 -4 -7 -16 0 -12 -6 -24 -14 -27 -8 -3
-13 -11 -10 -18 2 -6 -3 -20 -11 -31 -15 -19 -16 -17 -11 28 4 30 2 46 -4 42
-6 -3 -10 -18 -10 -33 0 -45 -12 -102 -21 -102 -5 0 -16 14 -24 31 -9 17 -19
28 -22 25 -3 -3 1 -16 9 -28 22 -34 28 -57 18 -63 -5 -3 -16 7 -25 22 -11 18
-14 21 -11 8 13 -53 16 -69 10 -57 -9 20 -24 14 -25 -10 0 -22 -1 -22 -9 -3
-7 17 -9 14 -11 -15 -1 -19 -1 -49 0 -67 1 -17 -5 -46 -14 -65 -16 -33 -16
-33 3 -12 17 20 20 20 31 5 10 -13 11 -9 7 24 -4 31 -1 44 16 62 20 21 22 21
35 5 12 -15 13 -13 7 19 -7 47 10 59 31 22 16 -27 16 -27 10 -3 -17 64 -16 80
6 124 25 51 34 56 44 26 4 -13 -2 -31 -15 -51 -12 -16 -20 -32 -17 -35 3 -3
15 9 27 26 18 25 25 28 36 19 8 -6 14 -18 14 -25 0 -8 5 -14 10 -14 13 0 13
13 1 25 -18 18 -16 70 4 132 11 35 24 62 29 60 4 -2 22 -29 39 -61 18 -31 33
-52 35 -46 2 6 -2 17 -8 25 -9 11 -9 19 -2 28 9 10 8 19 -2 33 -8 11 -19 39
-25 62 -10 35 -9 46 5 67 22 33 33 32 40 -5 4 -16 11 -30 16 -30 17 0 21 31 9
71 -10 33 -9 44 6 71 l18 33 3 -29 c2 -16 -4 -123 -13 -237 -16 -202 -15 -266
7 -339 16 -54 70 -170 80 -170 4 0 -1 18 -12 40 -63 123 -83 228 -70 360 5 52
14 158 21 235 8 98 16 142 25 148 8 4 14 19 14 32 0 13 5 27 10 30 19 11 11
-98 -9 -138 -11 -21 -14 -36 -8 -34 6 2 20 28 30 58 15 42 18 69 13 122 -6 67
10 137 32 137 17 0 24 -110 8 -141 -8 -16 -11 -29 -7 -29 14 0 31 50 31 88 0
21 5 43 11 49 7 7 7 22 -1 52 -8 32 -8 51 2 79 18 55 31 63 24 17 -6 -35 -5
-37 5 -17 7 12 15 22 18 22 3 0 4 23 3 50 -5 61 4 92 18 70 6 -8 10 -26 10
-39 0 -18 3 -22 10 -15 8 8 7 23 -3 51 -11 33 -11 49 1 104 14 63 38 134 28
82 -3 -15 1 -23 9 -23 8 0 15 -8 17 -17 3 -10 2 34 0 97 -4 100 4 268 27 578
5 75 8 84 30 95 23 11 25 19 28 97 4 97 -1 130 -21 130 -10 0 -15 26 -20 98
-18 251 -62 403 -154 531 -30 42 -65 92 -78 113 -13 20 -66 80 -118 135 -53
54 -96 101 -96 105 0 11 -105 87 -185 134 -229 136 -360 183 -530 189 -88 4
-111 1 -190 -24z m-365 -1161 c-8 -5 -40 -10 -70 -10 -39 0 -51 3 -40 10 8 5
40 10 70 10 39 0 51 -3 40 -10z m1350 -52 c42 -14 31 -15 -170 -15 -260 0
-289 -5 -330 -46 -27 -27 -30 -37 -30 -91 0 -46 6 -70 26 -105 35 -60 129
-175 168 -206 27 -22 28 -25 10 -25 -43 0 -124 31 -139 54 -8 12 -22 47 -31
77 -22 74 -79 185 -99 193 -39 15 -82 5 -123 -26 -34 -26 -39 -34 -26 -38 15
-5 11 -13 -20 -48 -21 -23 -48 -61 -59 -84 -21 -40 -81 -88 -94 -75 -6 7 41
92 68 122 29 32 58 107 65 166 5 46 3 58 -15 81 -12 15 -38 32 -59 38 -63 21
-58 29 14 25 268 -17 529 -10 588 16 29 13 202 4 256 -13z m75 -48 c17 -7 57
-20 89 -29 79 -22 97 -47 98 -134 0 -82 -18 -160 -42 -182 -53 -48 -332 -97
-466 -81 -58 7 -61 9 -132 84 -81 85 -126 157 -135 219 -15 92 26 125 163 134
147 10 391 4 425 -11z m215 -22 c19 -6 41 -13 49 -15 11 -3 13 -22 9 -94 -3
-49 -7 -92 -9 -94 -2 -2 -16 -6 -32 -10 l-27 -7 0 72 c0 82 -18 122 -62 141
-72 29 -21 34 72 7z m104 -40 c10 -40 -5 -168 -20 -168 -16 0 -18 33 -8 129 7
63 17 78 28 39z m-1004 -78 c49 -26 148 -281 160 -410 4 -41 14 -92 23 -112
17 -37 17 -37 -14 -72 -35 -40 -156 -106 -194 -106 -14 0 -42 7 -63 16 -20 9
-55 16 -77 16 -33 0 -45 6 -68 34 l-29 34 25 87 c26 90 50 201 61 284 4 26 22
76 41 113 19 36 35 71 35 78 0 37 59 60 100 38z m818 -277 c-11 -10 -33 -13
-79 -11 -69 4 -67 6 26 35 49 15 61 16 63 4 2 -7 -3 -20 -10 -28z m99 -500
c-3 -10 -5 -4 -5 12 0 17 2 24 5 18 2 -7 2 -21 0 -30z m-51 -140 c-10 -10 -19
5 -10 18 6 11 8 11 12 0 2 -7 1 -15 -2 -18z m-45 -110 c-10 -17 -10 -16 -11 3
0 23 13 41 18 25 2 -6 -1 -18 -7 -28z m-42 -238 c-1 -29 -1 -29 -9 -5 -4 14
-8 34 -9 45 -1 16 1 17 9 5 5 -8 9 -28 9 -45z m-164 -176 c-4 -15 -14 -34 -23
-41 -14 -11 -15 -11 -9 5 4 10 7 44 8 75 l1 57 14 -34 c9 -19 12 -45 9 -62z
m47 -1 c-9 -9 -12 -7 -12 12 0 19 3 21 12 12 9 -9 9 -15 0 -24z m-134 -270
l11 -43 -20 24 c-19 24 -26 61 -10 61 5 0 13 -19 19 -42z m-80 -88 c-11 -34
-24 -45 -33 -30 -10 16 4 48 23 53 9 3 18 5 19 6 1 0 -3 -13 -9 -29z m-158
-209 c0 -5 -7 -14 -15 -21 -16 -14 -18 -10 -9 14 6 17 24 22 24 7z"/>
<path d="M1357 2369 c-46 -11 -89 -32 -106 -53 -20 -23 5 -20 28 3 23 23 74
39 152 47 81 9 121 -1 163 -42 37 -36 47 -35 21 2 -34 49 -150 68 -258 43z"/>
<path d="M1313 2289 c-7 -7 -13 -19 -13 -27 0 -7 -23 -23 -50 -34 -41 -17 -50
-25 -48 -42 4 -25 83 -56 148 -58 48 -1 218 53 231 74 10 17 -5 50 -32 70 -32
24 -217 37 -236 17z m232 -34 c14 -13 25 -28 25 -33 0 -14 -22 -30 -50 -37
-22 -5 -27 0 -46 40 -11 25 -18 47 -16 50 14 14 65 3 87 -20z m-251 -40 c-4
-8 1 -27 11 -41 18 -28 14 -44 -7 -26 -7 5 -28 14 -46 19 -42 11 -43 24 -1 45
43 21 50 22 43 3z"/>
<path d="M1630 2111 c0 -12 -44 -28 -120 -42 -130 -23 -135 -23 -206 10 -72
34 -95 36 -42 3 51 -30 105 -44 151 -39 78 9 182 28 210 39 26 10 38 38 17 38
-5 0 -10 -4 -10 -9z"/>
<path d="M107 3033 c-3 -5 109 -7 248 -5 155 2 282 -1 327 -8 40 -6 120 -15
178 -20 58 -6 128 -15 155 -21 28 -7 140 -13 250 -14 155 -1 211 -5 250 -18
28 -9 60 -17 72 -17 13 0 40 -16 62 -35 21 -19 47 -35 57 -35 16 0 14 3 -8 18
-14 9 -41 29 -60 43 -18 15 -49 29 -68 32 -175 25 -230 29 -345 25 -88 -3
-146 -1 -179 8 -27 7 -92 16 -145 20 -53 3 -127 12 -164 20 -74 15 -622 21
-630 7z"/>
<path d="M305 2942 c-95 -34 -215 -97 -214 -112 0 -10 2 -11 6 -2 2 6 9 12 15
12 5 0 51 21 101 48 l92 47 165 -1 c180 -1 221 -8 315 -56 58 -30 64 -31 190
-31 72 1 153 6 180 12 99 23 207 30 288 20 84 -11 129 -30 189 -80 20 -17 41
-30 48 -27 16 5 -108 93 -155 109 -51 18 -284 18 -340 1 -22 -7 -105 -15 -185
-19 l-145 -5 -57 30 c-76 41 -171 60 -319 67 -103 4 -132 2 -174 -13z"/>
<path d="M325 2893 c17 -2 59 -11 95 -19 36 -9 104 -19 151 -24 61 -6 105 -17
153 -39 67 -30 100 -40 80 -23 -32 29 -147 66 -242 78 -57 8 -121 18 -141 24
-20 5 -56 9 -81 8 -33 -1 -37 -2 -15 -5z"/>
<path d="M245 2846 c-96 -30 -165 -83 -165 -125 1 -26 1 -26 14 4 22 51 133
115 197 115 16 0 29 5 29 10 0 13 -25 12 -75 -4z"/>
<path d="M1200 2800 c-25 -4 -58 -13 -73 -19 -16 -6 -42 -11 -58 -11 -16 0
-29 -4 -29 -10 0 -10 29 -6 120 15 113 27 171 28 300 4 113 -21 126 -26 157
-57 42 -42 55 -36 16 8 -22 25 -44 35 -108 51 -91 22 -258 32 -325 19z"/>
<path d="M233 2705 c-54 -25 -71 -42 -30 -30 12 4 40 16 62 27 32 16 52 19
100 15 77 -8 119 -29 176 -88 25 -27 50 -49 57 -49 19 0 -89 106 -128 126 -22
11 -64 19 -110 20 -63 3 -83 0 -127 -21z"/>
<path d="M1383 2616 c-39 -19 -74 -39 -77 -45 -11 -18 14 -13 41 9 35 28 127
60 171 60 42 0 68 -15 118 -69 18 -20 34 -31 34 -26 0 6 -20 31 -45 58 -44 46
-46 47 -108 47 -51 0 -76 -6 -134 -34z"/>
<path d="M265 2423 c-46 -19 -98 -53 -91 -60 2 -2 15 3 29 12 85 55 234 73
305 36 43 -23 101 -75 127 -114 23 -36 40 -35 18 1 -24 39 -92 101 -135 123
-48 25 -194 26 -253 2z"/>
<path d="M238 2323 c-21 -8 -38 -21 -38 -27 0 -22 61 -96 83 -100 104 -21 220
-27 286 -15 40 7 74 16 77 21 8 13 -52 65 -83 73 -16 4 -55 20 -88 36 -49 24
-72 29 -130 28 -39 0 -86 -7 -107 -16z m82 2 c0 -3 -10 -19 -21 -35 -14 -18
-20 -38 -17 -54 3 -14 2 -26 -2 -26 -9 0 -65 79 -59 84 26 23 99 45 99 31z
m286 -91 c32 -22 24 -31 -39 -39 -28 -3 -59 -8 -67 -11 -12 -3 -15 7 -16 50
l-2 53 50 -19 c27 -10 60 -26 74 -34z"/>
<path d="M204 2137 c10 -7 34 -24 53 -39 45 -35 79 -42 178 -33 71 6 86 10
107 32 12 14 32 29 43 33 19 8 19 9 1 9 -10 1 -33 -12 -51 -28 -28 -24 -45
-30 -112 -36 -88 -7 -116 0 -173 45 -21 17 -44 30 -51 29 -9 0 -8 -4 5 -12z"/>
<path d="M787 1458 c-8 -13 -26 -44 -40 -69 -14 -25 -33 -51 -41 -59 -9 -7
-16 -17 -16 -22 0 -27 80 81 108 145 14 33 8 36 -11 5z"/>
<path d="M931 1378 c-2 -42 -11 -58 -34 -58 -14 0 -18 -3 -11 -10 27 -27 61
20 51 71 -4 23 -4 22 -6 -3z"/>
<path d="M842 1372 c3 -11 -1 -30 -9 -41 -15 -23 -5 -29 15 -9 15 15 16 55 0
64 -7 5 -9 0 -6 -14z"/>
<path d="M1066 1350 c10 -46 -3 -80 -29 -80 -17 0 -19 -2 -8 -9 19 -12 51 4
51 24 0 26 15 16 44 -29 41 -65 62 -82 81 -66 8 7 15 21 15 31 0 38 17 17 45
-52 23 -58 27 -81 22 -126 -7 -63 -22 -89 -43 -72 -11 9 -14 8 -14 -5 0 -19
33 -22 48 -3 6 6 14 30 18 52 4 22 11 43 17 46 13 9 -63 188 -85 200 -15 8
-18 5 -18 -20 0 -73 -44 -42 -91 65 -33 75 -64 101 -53 44z"/>
<path d="M632 1308 c-16 -24 -37 -57 -46 -75 -10 -20 -21 -30 -30 -27 -10 4
-16 -7 -21 -38 -4 -24 -16 -65 -26 -92 -10 -28 -16 -52 -14 -54 7 -7 41 77 49
121 4 24 12 37 23 37 9 0 13 -6 10 -14 -3 -8 -9 -32 -13 -53 -4 -21 -15 -57
-26 -81 -24 -58 -22 -77 3 -29 11 21 29 81 40 135 15 73 29 110 56 150 19 29
33 56 30 58 -3 3 -18 -14 -35 -38z"/>
<path d="M872 1239 c-58 -8 -89 -24 -121 -66 -12 -15 -53 -68 -92 -117 -47
-60 -68 -95 -63 -105 4 -9 16 -50 29 -91 12 -41 31 -93 42 -115 11 -22 28 -65
38 -95 31 -97 79 -149 135 -149 51 0 200 25 237 40 57 23 80 83 88 234 3 72
13 154 22 184 9 32 13 76 11 108 -4 44 -11 60 -38 88 -64 66 -174 98 -288 84z
m204 -43 c75 -34 104 -77 104 -154 0 -33 -5 -73 -11 -89 -6 -15 -13 -86 -16
-158 -5 -150 -25 -206 -80 -238 -43 -25 -228 -52 -259 -39 -34 16 -73 73 -100
149 -14 37 -33 84 -43 103 -10 20 -28 74 -40 120 l-21 84 48 55 c26 31 58 72
69 91 33 54 78 92 120 101 62 13 172 1 229 -25z"/>
<path d="M830 1163 c-33 -6 -46 -18 -85 -78 -18 -27 -47 -65 -64 -83 -33 -36
-39 -56 -18 -69 29 -19 101 -112 122 -159 38 -87 85 -102 189 -64 96 36 136
103 136 228 0 85 -17 145 -48 174 -44 40 -157 65 -232 51z"/>
<path d="M28 1093 c-3 -75 -2 -91 6 -82 8 10 15 159 7 159 -5 0 -11 -35 -13
-77z"/>
<path d="M1226 1127 c5 -36 4 -47 -7 -47 -10 0 -10 -3 -1 -12 6 -6 15 -8 19
-4 11 10 6 87 -7 100 -7 7 -8 -4 -4 -37z"/>
<path d="M1670 1091 c0 -22 -27 -36 -33 -18 -2 7 -8 9 -12 5 -11 -11 4 -28 26
-28 12 0 23 10 29 26 12 32 12 34 0 34 -5 0 -10 -9 -10 -19z"/>
<path d="M116 1072 c-3 -6 -15 -40 -26 -76 -15 -47 -26 -66 -37 -66 -14 0 -15
-2 -4 -12 10 -11 15 -9 27 7 15 20 15 20 34 -5 30 -38 45 -93 31 -118 -15 -29
-14 -37 4 -22 30 25 15 90 -37 162 -17 23 -17 26 3 77 18 48 21 78 5 53z"/>
<path d="M1544 965 c-26 -53 -27 -55 -45 -39 -11 10 -19 23 -19 29 0 7 -7 19
-16 26 -14 11 -14 8 1 -26 27 -63 29 -84 10 -105 -10 -11 -16 -22 -13 -25 13
-14 118 137 118 171 0 13 -2 24 -4 24 -3 0 -17 -25 -32 -55z"/>
<path d="M476 914 c-3 -47 -18 -127 -32 -176 -14 -50 -23 -92 -20 -95 2 -2 9
11 14 29 6 18 19 60 29 93 l18 60 6 -75 c6 -69 6 -68 4 20 -2 52 -3 125 -4
163 0 37 -2 67 -4 67 -2 0 -7 -39 -11 -86z"/>
<path d="M1344 925 c4 -16 9 -45 12 -62 6 -28 4 -33 -13 -33 -17 0 -21 -9 -26
-67 -10 -98 -9 -135 3 -128 6 3 10 44 10 89 0 77 2 84 21 89 20 5 21 10 15 58
-4 29 -12 60 -17 68 -8 12 -9 8 -5 -14z"/>
<path d="M41 860 l-1 -45 -20 25 c-20 26 -27 21 -11 -9 6 -10 6 -33 1 -56 -5
-22 -7 -41 -6 -43 2 -1 16 18 31 44 24 41 26 51 17 88 l-10 41 -1 -45z"/>
<path d="M1417 769 c-20 -12 -40 -56 -32 -69 10 -15 33 0 45 30 16 37 11 52
-13 39z m-6 -42 c-10 -9 -11 -8 -5 6 3 10 9 15 12 12 3 -3 0 -11 -7 -18z"/>
<path d="M280 744 c6 -14 10 -43 10 -64 0 -21 -4 -50 -10 -64 -5 -14 -6 -26
-1 -26 5 0 14 22 21 49 9 38 9 58 -1 90 -7 23 -16 41 -20 41 -5 0 -4 -12 1
-26z"/>
<path d="M577 699 c4 -50 2 -75 -10 -98 -8 -17 -11 -31 -6 -31 25 0 39 129 19
175 -6 13 -7 -4 -3 -46z"/>
<path d="M181 745 c-1 -15 44 -172 68 -237 20 -55 28 -128 15 -141 -4 -3 -24
8 -45 26 -30 25 -39 40 -40 67 -1 24 -3 28 -6 13 -7 -36 -30 -27 -35 12 -3 25
0 35 9 35 15 0 11 36 -11 115 -11 37 -12 32 -11 -57 0 -66 -4 -98 -11 -98 -25
0 -37 35 -49 140 -7 61 -16 114 -19 117 -3 4 -3 -43 0 -103 l5 -109 -25 28
c-14 15 -26 22 -26 16 0 -7 15 -28 33 -47 21 -23 28 -36 19 -39 -6 -3 -9 -9
-6 -14 4 -6 11 -6 19 1 16 13 52 -6 61 -32 8 -27 -7 -70 -22 -64 -16 6 -19
-10 -5 -19 15 -8 41 24 41 51 0 13 4 24 10 24 16 0 23 -50 11 -76 -14 -32 -14
-41 0 -27 6 6 14 26 18 43 l6 33 33 -28 c19 -16 31 -34 28 -42 -3 -8 0 -13 7
-11 14 3 54 -21 115 -70 42 -34 42 -35 42 -101 0 -37 -5 -72 -11 -78 -13 -13
-3 -36 12 -28 5 4 9 42 9 86 0 43 4 79 9 79 15 0 23 -37 16 -70 -4 -19 -3 -30
4 -30 6 0 11 16 11 35 0 19 4 35 8 35 19 0 42 -38 42 -68 0 -18 5 -32 11 -32
7 0 9 10 5 26 -6 21 -3 25 10 22 17 -3 26 -16 40 -53 6 -18 8 -18 11 -3 4 16
8 15 41 -7 20 -14 42 -35 49 -47 10 -18 12 -20 13 -6 0 17 2 17 40 2 41 -16
124 -15 179 2 17 5 22 4 17 -4 -4 -7 -1 -12 9 -12 8 0 18 6 21 14 5 14 64 41
64 30 0 -3 -5 -14 -10 -25 -16 -28 11 -25 29 4 l15 22 7 -25 c7 -23 7 -23 8 7
1 41 19 52 27 16 10 -49 12 -49 13 0 1 38 6 53 24 68 39 32 44 24 22 -36 -6
-14 -5 -17 2 -10 15 14 62 135 53 135 -4 0 -11 20 -14 45 -10 66 -25 64 -19
-3 5 -52 3 -61 -22 -90 -41 -49 -55 -43 -49 20 4 39 3 49 -5 38 -9 -12 -11
-11 -11 7 0 12 -4 24 -9 27 -5 4 -7 -21 -5 -56 3 -54 2 -58 -6 -31 -6 18 -15
33 -20 33 -6 0 -11 10 -12 23 -1 12 -4 -16 -7 -63 -5 -73 -9 -85 -25 -88 -15
-3 -17 0 -11 14 4 11 10 37 13 59 5 39 5 39 -14 21 -10 -11 -26 -40 -35 -65
-13 -39 -21 -48 -54 -59 -21 -7 -39 -11 -41 -9 -2 2 12 34 31 72 19 38 35 76
34 84 0 9 -16 -16 -34 -55 -18 -40 -38 -75 -43 -78 -18 -11 -21 23 -7 79 18
66 18 68 5 60 -5 -3 -10 -14 -10 -23 0 -9 -5 -24 -10 -32 -17 -27 -33 6 -41
82 -7 66 -7 63 -4 -27 2 -55 6 -111 10 -125 10 -45 -5 -53 -60 -33 -54 20 -62
34 -65 113 -1 25 -5 54 -10 65 l-9 20 0 -20 c-1 -17 -3 -17 -11 -5 -7 11 -10
2 -10 -31 0 -53 -19 -79 -40 -54 -14 16 -15 50 -6 119 4 30 3 36 -3 21 -6 -11
-13 -42 -16 -68 -4 -31 -11 -47 -18 -44 -9 3 -11 52 -9 183 2 143 -1 185 -13
209 -14 29 -14 27 -8 -40 8 -72 7 -314 0 -321 -10 -10 -38 10 -41 30 -3 11
-10 54 -17 94 -7 40 -18 77 -26 83 -7 6 -13 20 -13 29 0 10 -4 20 -8 22 -5 2
-20 32 -35 68 -14 36 -26 56 -26 45 0 -11 8 -38 18 -61 29 -64 34 -114 16
-157 -17 -42 -34 -46 -76 -16 -25 18 -29 27 -29 67 l1 47 22 -27 c23 -28 52
-38 44 -15 -2 6 -9 11 -15 10 -12 -3 -52 75 -52 100 0 9 -4 17 -10 17 -5 0
-27 55 -49 123 -22 67 -40 118 -40 112z m233 -448 c-9 -44 -14 -50 -29 -37
-10 8 -9 17 4 44 19 41 35 36 25 -7z m13 -39 c-3 -7 -5 -2 -5 12 0 14 2 19 5
13 2 -7 2 -19 0 -25z m233 -144 c0 -49 -2 -55 -15 -44 -11 9 -14 23 -9 49 13
71 24 69 24 -5z m391 -31 c-8 -14 -10 -6 -10 37 1 55 1 55 11 18 7 -25 6 -43
-1 -55z m-71 0 c-11 -17 -11 -17 -6 0 3 10 7 26 7 35 1 15 2 15 6 0 2 -10 -1
-25 -7 -35z"/>
<path d="M3 650 c0 -30 2 -43 4 -27 2 15 2 39 0 55 -2 15 -4 2 -4 -28z"/>
<path d="M390 664 c1 -24 38 -156 39 -139 1 24 -24 133 -33 142 -3 4 -6 2 -6
-3z"/>
<path d="M625 648 c-7 -20 -24 -102 -25 -116 0 -7 4 -11 9 -8 15 10 21 -34 22
-174 2 -126 2 -130 10 -65 5 39 6 104 2 145 -4 41 -7 110 -7 153 -1 77 -3 88
-11 65z"/>
<path d="M1351 603 c-1 -42 -6 -67 -17 -78 -9 -9 -14 -19 -10 -22 22 -22 47
65 36 123 -7 36 -8 34 -9 -23z"/>
<path d="M1260 572 c0 -35 -28 -120 -42 -129 -8 -4 -9 13 -6 54 3 33 1 66 -4
74 -8 11 -9 11 -5 -3 10 -29 -13 -162 -30 -175 -8 -6 -12 -17 -8 -23 16 -25
72 60 99 149 19 63 20 81 6 81 -5 0 -10 -13 -10 -28z"/>
<path d="M960 482 c0 -6 5 -14 10 -17 17 -10 11 -68 -10 -110 -23 -45 -23 -45
-11 -45 14 0 41 77 41 119 0 22 -6 44 -15 51 -9 8 -15 9 -15 2z"/>
<path d="M691 465 c21 -51 73 -137 76 -128 2 7 -7 29 -21 50 -14 21 -26 43
-26 49 0 6 -7 18 -17 25 -9 8 -14 10 -12 4z"/>
<path d="M6 390 c7 -106 8 -291 0 -345 -5 -42 -5 -46 5 -25 14 30 13 334 -1
395 -8 34 -8 30 -4 -25z"/>
<path d="M815 415 c4 -11 11 -45 16 -75 l8 -55 -3 63 c-1 36 -8 67 -16 75 -11
10 -12 8 -5 -8z"/>
<path d="M1050 381 c0 -27 -7 -67 -15 -90 -8 -22 -10 -41 -6 -41 10 0 26 60
36 133 5 32 4 47 -4 47 -7 0 -11 -20 -11 -49z"/>
<path d="M707 300 c7 -90 19 -138 43 -185 19 -37 21 -38 15 -10 -3 17 -10 57
-16 90 -6 33 -14 69 -19 80 -4 11 -13 36 -18 55 -9 30 -10 25 -5 -30z"/>
<path d="M997 340 c-3 -8 -8 -28 -11 -45 l-5 -30 15 34 c8 18 13 38 11 45 -3
7 -7 5 -10 -4z"/>
<path d="M910 264 c0 -21 -7 -37 -22 -47 -13 -9 -18 -16 -12 -16 14 -1 54 37
54 52 0 7 -5 19 -10 27 -7 11 -10 8 -10 -16z"/>
<path d="M1561 273 c-2 -23 -32 -228 -37 -253 -3 -15 -2 -21 4 -15 12 13 47
247 39 266 -3 9 -6 9 -6 2z"/>
<path d="M1269 75 c-7 -7 2 -75 10 -75 4 0 5 18 3 40 -4 41 -5 44 -13 35z"/>
</g>
</svg>
