<?xml version="1.0" standalone="no"?>
<!DOCTYPE svg PUBLIC "-//W3C//DTD SVG 20010904//EN"
 "http://www.w3.org/TR/2001/REC-SVG-20010904/DTD/svg10.dtd">
<svg version="1.0" xmlns="http://www.w3.org/2000/svg"
 width="316.000000pt" height="500.000000pt" viewBox="0 0 316.000000 500.000000"
 preserveAspectRatio="xMidYMid meet">

<g transform="translate(0.000000,500.000000) scale(0.100000,-0.100000)"
fill="#000000" stroke="none">
<path d="M1865 4470 c-30 -5 -126 -47 -244 -107 -251 -127 -278 -151 -359
-316 -53 -106 -62 -134 -72 -214 -6 -50 -9 -113 -5 -140 17 -123 47 -284 64
-348 11 -38 28 -113 40 -165 11 -52 27 -115 36 -139 20 -59 20 -91 -2 -91 -44
0 -283 50 -330 69 -29 11 -80 25 -114 30 -43 7 -70 18 -88 35 -30 29 -78 49
-98 42 -23 -9 -117 15 -140 36 -13 13 -37 21 -60 22 -33 1 -38 -2 -41 -23 -3
-18 10 -37 57 -81 58 -54 61 -59 61 -105 0 -36 -6 -54 -25 -77 -14 -16 -25
-38 -25 -48 0 -10 -4 -22 -10 -25 -16 -10 -12 -62 6 -69 8 -3 44 -2 80 3 55 8
72 7 107 -8 60 -26 147 -83 182 -121 17 -17 70 -61 118 -98 48 -36 103 -87
123 -114 19 -27 41 -51 49 -54 8 -3 46 -45 86 -92 39 -48 106 -119 149 -159
84 -79 123 -144 135 -229 17 -120 39 -194 85 -292 53 -109 92 -245 110 -372 6
-41 17 -115 25 -165 58 -361 65 -421 65 -570 -1 -125 -18 -291 -38 -365 -15
-55 -23 -120 -14 -120 4 0 13 30 19 67 7 38 18 91 24 118 15 63 17 535 2 620
-10 61 -62 367 -81 485 -19 109 -51 210 -102 315 -40 81 -52 121 -66 205 -27
172 -61 238 -172 333 -31 27 -88 88 -128 135 -40 48 -86 97 -103 110 -17 12
-31 28 -31 35 0 17 -46 65 -110 112 -30 22 -79 63 -109 91 -70 64 -136 109
-207 140 -47 21 -61 23 -92 14 -47 -13 -99 -13 -107 0 -3 5 1 20 9 32 9 12 16
30 16 38 0 9 10 26 21 39 17 18 22 38 24 88 l2 64 -46 35 c-42 32 -70 66 -71
87 0 15 39 6 75 -18 39 -27 119 -47 152 -39 12 3 39 -8 71 -30 31 -21 74 -39
106 -45 29 -5 81 -19 115 -31 68 -22 247 -60 289 -60 51 0 71 -11 82 -45 9
-28 82 -148 100 -165 14 -13 68 -87 79 -108 9 -17 10 -32 2 -53 -10 -30 2 -42
14 -12 5 14 12 9 34 -27 26 -41 28 -48 16 -77 -13 -30 -11 -43 7 -43 4 0 8 9
8 19 0 59 56 0 112 -116 16 -35 34 -63 39 -63 6 0 6 7 -1 19 -14 28 -12 36 5
21 8 -7 15 -20 15 -30 0 -27 21 -80 31 -80 6 0 5 8 -1 19 -5 11 -10 29 -10 40
0 20 1 20 36 -4 20 -14 41 -25 45 -25 5 0 15 -12 23 -27 11 -20 15 -23 16 -10
0 26 18 20 35 -13 9 -16 19 -30 24 -30 5 0 7 -10 3 -22 -5 -20 -4 -21 11 -9
14 11 18 11 23 -3 3 -9 10 -16 15 -16 5 0 3 11 -3 25 -9 20 -9 28 1 38 9 9 14
9 21 -3 7 -10 10 -11 10 -2 0 22 25 13 42 -15 l17 -28 7 33 c5 26 11 32 28 30
15 -2 22 -11 24 -31 4 -30 22 -27 22 4 0 24 7 24 48 -1 35 -21 62 -26 62 -10
0 5 -7 7 -15 4 -14 -6 -65 37 -65 54 0 5 11 14 24 20 21 10 23 8 19 -11 -4
-20 -2 -19 20 6 21 25 27 27 44 16 23 -14 53 -6 53 13 0 9 -3 9 -12 0 -15 -15
-48 3 -48 27 0 22 45 65 59 56 6 -3 11 -16 12 -28 0 -14 5 -8 12 17 l12 39 13
-28 c7 -15 15 -25 18 -22 3 3 -2 19 -10 36 -19 37 -20 41 -3 41 19 0 37 44 37
90 0 37 14 60 28 45 4 -4 6 -33 5 -66 -1 -34 2 -57 8 -54 5 4 9 11 9 17 0 5 9
21 20 35 15 19 20 41 20 87 0 33 5 68 10 76 7 11 10 7 10 -17 0 -18 4 -33 9
-33 16 0 22 36 11 62 -8 16 -8 31 -1 48 l10 25 12 -32 c8 -18 17 -33 21 -33 4
0 1 18 -8 39 -9 22 -14 48 -12 58 2 13 8 9 25 -20 13 -21 30 -37 40 -37 17 1
17 1 0 11 -41 24 -60 107 -34 143 12 17 15 14 27 -28 7 -26 17 -49 23 -53 6
-4 8 3 3 18 -4 13 -9 35 -11 49 -2 14 -8 38 -14 53 -8 22 -8 35 3 55 13 23 15
25 21 10 4 -10 5 -25 1 -33 -3 -8 1 -36 9 -61 21 -70 29 -150 16 -158 -16 -10
-13 -26 4 -26 18 0 20 73 4 149 -6 28 -9 61 -7 73 4 22 5 21 18 -7 10 -22 14
-26 17 -13 2 9 -7 38 -21 65 -29 54 -32 81 -13 107 12 17 16 12 36 -43 17 -48
32 -68 63 -91 23 -17 46 -30 53 -30 6 0 65 -22 130 -49 66 -27 122 -48 124
-45 2 2 2 6 0 7 -9 8 -227 96 -253 103 -48 12 -91 63 -116 139 -12 39 -26 74
-30 78 -4 4 0 40 7 80 10 49 13 107 9 182 -7 151 -25 366 -37 450 -5 39 -14
111 -19 160 -14 128 -32 195 -67 246 -49 71 -108 126 -149 139 -22 7 -75 30
-119 51 -43 22 -86 39 -95 39 -8 0 -51 11 -95 25 -89 29 -243 40 -330 25z
m205 -11 c95 -15 260 -64 327 -98 32 -16 74 -34 93 -40 41 -13 85 -50 127
-106 47 -62 61 -96 77 -186 31 -169 72 -630 69 -764 -2 -93 -35 -251 -52 -248
-6 2 -11 0 -11 -5 -5 -82 -9 -112 -20 -132 -8 -14 -14 -32 -15 -40 -3 -33 -17
-60 -31 -60 -11 0 -12 -4 -5 -18 6 -11 6 -24 0 -33 -6 -10 -9 -11 -9 -1 0 7
-4 11 -9 7 -5 -3 -9 -18 -9 -34 1 -34 -10 -54 -24 -45 -8 5 -9 1 -5 -10 8 -20
-32 -96 -50 -96 -7 0 -13 9 -13 20 0 11 -4 20 -10 20 -12 0 -12 2 -1 -38 8
-26 7 -34 -4 -38 -8 -3 -25 -25 -39 -47 -46 -77 -43 -74 -61 -52 -17 20 -17
20 -9 0 10 -30 10 -60 -1 -61 -25 -2 -44 -18 -50 -41 -8 -32 -51 -90 -78 -105
-16 -8 -24 -5 -44 18 -13 17 -23 23 -22 14 4 -46 -1 -60 -25 -60 -26 0 -39 20
-29 48 5 13 3 14 -7 5 -7 -6 -19 -9 -26 -6 -9 3 -14 -2 -14 -13 0 -11 -5 -26
-10 -34 -9 -13 -11 -13 -20 0 -8 12 -12 12 -18 2 -11 -17 -40 -5 -48 20 -5 16
-8 18 -15 7 -7 -12 -9 -12 -9 0 0 11 -3 11 -15 1 -20 -16 -40 0 -62 49 -8 20
-17 31 -20 24 -2 -7 1 -21 7 -32 16 -31 -3 -26 -45 10 -27 24 -35 39 -35 65 0
19 -4 34 -9 34 -4 0 -6 -11 -3 -25 7 -38 -17 -31 -34 10 -10 24 -13 57 -10
107 l5 73 -11 -72 c-6 -40 -15 -73 -20 -73 -17 0 -20 31 -10 83 6 31 7 53 1
55 -5 2 0 17 12 33 18 26 19 30 4 35 -10 4 -13 13 -10 25 10 30 -3 22 -21 -13
-9 -18 -28 -48 -42 -66 l-26 -34 -18 24 c-13 17 -18 41 -18 91 0 71 -10 85
-26 40 l-10 -28 -19 30 c-10 17 -28 40 -38 52 -16 18 -19 31 -14 74 5 42 4 49
-7 40 -11 -9 -15 -9 -19 1 -3 7 -6 0 -7 -17 -1 -29 -1 -29 -16 -10 -11 14 -14
32 -10 60 l6 40 -19 -23 -19 -22 -15 42 c-8 24 -15 53 -15 64 0 12 -12 55 -26
95 -13 41 -28 92 -31 114 -4 22 -20 92 -35 155 -62 249 -73 325 -67 463 l5
128 62 125 c83 165 112 191 346 310 224 115 311 136 454 113z m500 -1940 c0
-36 -4 -49 -12 -47 -16 5 -22 41 -14 74 11 42 26 26 26 -27z m-875 -48 c-7
-34 -14 -38 -33 -19 -16 16 -15 39 2 32 7 -3 16 3 20 12 10 27 19 8 11 -25z
m766 -74 c-10 -9 -11 -8 -5 6 3 10 9 15 12 12 3 -3 0 -11 -7 -18z"/>
<path d="M2205 4135 c-42 -13 -96 -25 -258 -55 -174 -33 -361 -86 -393 -112
-7 -5 -56 -22 -110 -39 -110 -34 -154 -54 -154 -70 0 -5 14 -2 31 6 17 9 78
33 137 54 59 21 132 48 162 61 74 30 135 47 260 71 97 18 222 45 330 71 25 6
60 11 78 10 20 -1 31 2 27 8 -8 13 -60 11 -110 -5z"/>
<path d="M2355 4070 c-11 -5 -50 -9 -87 -9 -143 -2 -291 -32 -383 -79 -37 -19
-67 -26 -115 -27 -73 -2 -130 -15 -210 -49 -30 -13 -75 -28 -100 -34 -60 -14
-104 -31 -97 -38 3 -3 27 1 54 10 102 33 150 49 218 73 47 17 93 26 140 27 52
1 82 7 115 25 79 41 177 64 320 72 170 11 230 19 230 30 0 11 -58 11 -85 -1z"/>
<path d="M2170 3975 c-36 -13 -119 -35 -185 -50 -66 -15 -155 -36 -197 -46
-42 -11 -119 -23 -172 -28 -52 -5 -103 -14 -114 -20 -12 -6 -31 -11 -44 -11
-24 0 -48 -16 -48 -33 0 -5 6 -5 13 1 20 16 136 44 217 52 94 10 352 68 535
122 96 28 194 26 233 -5 8 -6 12 -6 12 2 0 20 -67 41 -127 40 -32 -1 -87 -12
-123 -24z"/>
<path d="M2218 3801 c-77 -10 -132 -22 -140 -30 -11 -12 -10 -13 7 -6 29 11
211 34 278 35 32 0 74 -7 94 -15 44 -18 56 -12 16 8 -46 23 -120 26 -255 8z"/>
<path d="M1540 3620 c-97 -15 -212 -81 -186 -107 3 -3 8 1 12 10 9 25 121 75
189 85 75 11 145 5 168 -16 9 -8 19 -13 22 -10 3 3 -3 12 -12 20 -23 20 -121
29 -193 18z"/>
<path d="M2087 3587 c-26 -24 -47 -48 -47 -54 0 -6 -3 -18 -6 -27 -3 -9 -2
-16 4 -16 5 0 13 12 16 28 4 15 26 44 49 64 23 20 39 39 36 42 -3 4 -27 -13
-52 -37z"/>
<path d="M2260 3569 c-25 -5 -70 -14 -100 -20 -85 -17 -124 -65 -82 -102 15
-14 28 -15 87 -6 103 14 142 27 160 52 20 28 19 73 -1 81 -9 3 -16 6 -17 5 -1
-1 -22 -5 -47 -10z m66 -20 c9 -14 -16 -59 -32 -59 -20 0 -30 50 -13 61 19 12
36 11 45 -2z m-168 -60 c0 -40 -1 -40 -37 -37 -22 2 -37 9 -39 18 -4 21 34 60
58 60 15 0 19 -7 18 -41z"/>
<path d="M1949 3526 c-3 -4 -3 -26 2 -49 4 -23 8 -67 9 -97 0 -31 4 -60 9 -65
5 -6 17 -37 27 -69 12 -40 30 -71 56 -97 32 -32 38 -44 38 -81 0 -24 -7 -54
-16 -67 -16 -22 -22 -23 -76 -17 -48 5 -68 2 -105 -15 l-45 -20 -25 23 c-44
41 -47 65 -16 126 22 44 28 69 27 116 -1 71 -22 249 -34 286 -8 24 -8 24 -9 3
-1 -27 1 -27 -42 -9 -19 7 -52 17 -74 21 -58 10 -32 -10 34 -27 80 -19 89 -37
103 -194 l11 -131 -26 -48 c-34 -59 -34 -90 -2 -138 30 -43 56 -47 111 -18 27
15 48 18 95 14 81 -8 99 8 99 89 0 53 -3 62 -36 98 -48 52 -94 176 -95 255 -2
68 -11 120 -20 111z"/>
<path d="M1525 3461 c-61 -25 -69 -98 -14 -126 39 -21 164 -19 209 3 45 22 62
66 34 86 -50 37 -178 58 -229 37z m13 -59 c0 -22 2 -44 6 -50 8 -14 -13 -16
-32 -4 -18 12 -25 61 -11 78 22 27 39 16 37 -24z m178 22 c45 -22 44 -47 -3
-69 -21 -10 -40 -19 -43 -20 -3 -2 -5 21 -5 51 0 30 4 54 8 54 5 0 24 -7 43
-16z"/>
<path d="M2645 2939 c-10 -16 -15 -123 -5 -113 7 8 20 124 14 124 -2 0 -6 -5
-9 -11z"/>
<path d="M2571 2882 c-8 -20 -29 -42 -52 -55 -44 -25 -52 -41 -13 -27 29 11
29 12 -23 -62 -18 -27 -30 -48 -27 -48 16 0 94 91 100 117 4 15 14 38 21 50 8
12 13 30 11 40 -2 13 -7 9 -17 -15z"/>
<path d="M1943 2829 c0 -16 4 -29 9 -29 4 0 8 5 8 10 0 6 7 10 16 10 18 0 10
16 -15 29 -15 9 -18 6 -18 -20z"/>
<path d="M2080 2812 c0 -29 4 -52 10 -52 6 0 7 19 3 48 -8 64 -13 66 -13 4z"/>
<path d="M1765 2789 c-16 -35 -31 -68 -33 -73 -3 -5 0 -6 6 -2 14 8 63 117 59
129 -2 6 -16 -19 -32 -54z"/>
<path d="M1902 2822 c-13 -38 -27 -43 -18 -7 4 14 3 25 -2 25 -4 0 -14 -21
-21 -47 -7 -27 -22 -58 -33 -70 -32 -34 -37 -120 -10 -172 11 -21 25 -57 31
-78 16 -58 48 -83 114 -90 73 -7 100 0 148 44 50 45 85 105 93 159 7 47 4 51
-78 119 -55 46 -61 49 -110 47 -28 -1 -68 0 -88 3 l-36 6 14 36 c8 19 13 40
11 46 -2 6 -9 -3 -15 -21z m250 -326 c-16 -22 -47 -54 -67 -71 -33 -27 -44
-30 -101 -29 -66 1 -93 14 -116 57 -13 25 -2 34 19 14 15 -13 32 -14 102 -8
l84 7 51 55 c42 45 52 52 54 36 2 -11 -10 -38 -26 -61z"/>
<path d="M2174 2801 c3 -18 6 -40 6 -47 0 -8 5 -14 11 -14 12 0 3 55 -13 80
-6 10 -8 5 -4 -19z"/>
<path d="M2572 2776 c-9 -35 -16 -46 -27 -42 -11 4 -15 -2 -15 -22 0 -16 -5
-33 -11 -39 -8 -8 -8 -13 0 -18 7 -4 14 6 17 24 4 17 12 31 19 31 14 0 39 69
34 95 -3 11 -9 -2 -17 -29z"/>
<path d="M2322 2738 c5 -23 7 -52 4 -65 -4 -12 -2 -25 4 -28 6 -4 10 7 10 27
0 48 -11 108 -20 108 -4 0 -4 -19 2 -42z"/>
<path d="M1681 2689 c-22 -45 -41 -93 -40 -108 l0 -26 11 25 c6 14 27 60 46
103 19 42 33 79 30 82 -3 3 -24 -31 -47 -76z"/>
<path d="M2231 2740 c-1 -27 14 -58 24 -49 3 3 -1 21 -9 40 -14 31 -15 32 -15
9z"/>
<path d="M2363 2669 c-9 -23 -9 -37 -2 -51 6 -11 9 -36 7 -54 -2 -19 0 -34 4
-34 4 0 9 17 9 38 1 20 3 52 5 70 6 50 -9 69 -23 31z"/>
<path d="M2440 2624 c0 -14 -5 -34 -11 -45 -6 -11 -8 -25 -6 -32 6 -15 37 55
37 83 0 11 -4 20 -10 20 -5 0 -10 -12 -10 -26z"/>
</g>
</svg>
